<?xml version="1.0" encoding="UTF-8" standalone="no"?>
<!DOCTYPE svg PUBLIC "-//W3C//DTD SVG 1.1//EN" "http://www.w3.org/Graphics/SVG/1.1/DTD/svg11.dtd">
<svg xmlns="http://www.w3.org/2000/svg" xmlns:xlink="http://www.w3.org/1999/xlink" viewBox="-5 -5 110 110" style="background-color: #00000066">
  <path d="M 45,80 L 35,95 L 5,95 L 35,50 L 5,5 L 35,5 L 95,95 L 65,95 L 55,80" style="fill:#ffffff; fill-rule:evenodd; stroke:none" />
  <g style="fill:none;stroke:#ff0000;stroke-linecap:round"><path d="M 30,95 L 40,65" /><path d="M 40,65 L 40,35" /><path d="M 40,35 L 20,40" /><path d="M 20,40 L 20,30" /><path d="M 20,30 L 45,25" /><path d="M 45,25 L 40,15" /><path d="M 40,15 L 45,5" /><path d="M 45,5 L 55,5" /><path d="M 55,5 L 60,15" /><path d="M 60,15 L 55,25" /><path d="M 55,25 L 80,30" /><path d="M 80,30 L 80,40" /><path d="M 80,40 L 60,35" /><path d="M 60,35 L 60,65" /><path d="M 60,65 L 70,95" /><path d="M 70,95 L 60,95" /><path d="M 60,95 L 50,70" /><path d="M 50,70 L 40,95" /><path d="M 40,95 L 30,95" /><path d="M 45,25 L 55,25" /><path d="M 45,5 L 50,15" /><path d="M 50,15 L 40,15" /><path d="M 45,25 L 50,15" /><path d="M 50,15 L 55,25" /><path d="M 60,15 L 50,15" /><path d="M 50,15 L 55,5" /><path d="M 40,35 L 45,25" /><path d="M 55,25 L 60,35" /><path d="M 40,65 L 50,70" /><path d="M 50,70 L 60,65" /></g>
  <circle cx="62" cy="46" r="5px" style="fill:#d0d00080" /><circle cx="77" cy="68" r="5px" style="fill:#ffa50080" /><circle cx="23" cy="68" r="5px" style="fill:#0000ff80" />
</svg>
