<?xml version="1.0" encoding="UTF-8" standalone="no"?>
<!DOCTYPE svg PUBLIC "-//W3C//DTD SVG 1.1//EN" "http://www.w3.org/Graphics/SVG/1.1/DTD/svg11.dtd">
<svg xmlns="http://www.w3.org/2000/svg" xmlns:xlink="http://www.w3.org/1999/xlink" viewBox="-5 -5 109 102" style="background-color: #00000066">
  <path d="M 5,86 L 17,27 L 10,9 L 55,5 L 58,31 L 79,45 L 83,76 L 64,71 L 57,87" style="fill:#ffffff; fill-rule:evenodd; stroke:none" />
  <g style="fill:none;stroke:#ff0000;stroke-linecap:round"><path d="M 10,76 L 21,78" /><path d="M 21,78 L 23,67" /><path d="M 23,67 L 12,66" /><path d="M 12,66 L 10,76" /><path d="M 12,66 L 18,56" /><path d="M 18,56 L 23,67" /><path d="M 18,56 L 24,42" /><path d="M 24,42 L 30,48" /><path d="M 30,48 L 26,34" /><path d="M 26,34 L 24,42" /><path d="M 26,34 L 35,33" /><path d="M 35,33 L 37,41" /><path d="M 37,41 L 30,48" /><path d="M 35,33 L 58,34" /><path d="M 58,34 L 58,48" /><path d="M 58,48 L 30,48" /><path d="M 30,48 L 33,62" /><path d="M 33,62 L 55,62" /><path d="M 55,62 L 58,48" /><path d="M 33,62 L 32,71" /><path d="M 32,71 L 39,67" /><path d="M 39,67 L 33,62" /><path d="M 55,62 L 50,68" /><path d="M 50,68 L 56,70" /><path d="M 56,70 L 55,62" /><path d="M 39,67 L 37,73" /><path d="M 37,73 L 32,71" /><path d="M 50,68 L 51,73" /><path d="M 51,73 L 56,70" /><path d="M 37,73 L 41,74" /><path d="M 51,73 L 48,74" /><path d="M 41,74 L 42,69" /><path d="M 42,69 L 47,69" /><path d="M 47,69 L 48,74" /><path d="M 48,74 L 47,80" /><path d="M 47,80 L 42,80" /><path d="M 42,80 L 41,74" /><path d="M 58,48 L 63,45" /><path d="M 63,45 L 60,42" /><path d="M 60,42 L 63,39" /><path d="M 63,39 L 58,34" /><path d="M 63,39 L 79,31" /><path d="M 79,31 L 84,22" /><path d="M 84,22 L 84,31" /><path d="M 84,31 L 79,31" /><path d="M 84,31 L 89,31" /><path d="M 89,31 L 89,22" /><path d="M 89,22 L 84,22" /><path d="M 80,13 L 80,16" /><path d="M 80,16 L 94,16" /><path d="M 94,16 L 94,13" /><path d="M 94,13 L 80,13" /><path d="M 80,16 L 84,22" /><path d="M 63,45 L 71,53" /><path d="M 71,53 L 78,56" /><path d="M 78,56 L 72,60" /><path d="M 72,60 L 71,53" /><path d="M 72,60 L 75,63" /><path d="M 75,63 L 83,59" /><path d="M 83,59 L 78,56" /><path d="M 78,56 L 84,47" /><path d="M 84,47 L 91,55" /><path d="M 91,55 L 83,59" /><path d="M 35,33 L 45,32" /><path d="M 45,32 L 58,34" /><path d="M 45,32 L 52,30" /><path d="M 52,30 L 45,24" /><path d="M 45,24 L 42,24" /><path d="M 42,24 L 38,31" /><path d="M 38,31 L 45,32" /><path d="M 42,24 L 40,21" /><path d="M 40,21 L 31,26" /><path d="M 31,26 L 38,31" /><path d="M 40,21 L 37,18" /><path d="M 37,18 L 30,22" /><path d="M 30,22 L 31,26" /><path d="M 45,24 L 46,19" /><path d="M 46,19 L 56,21" /><path d="M 56,21 L 52,30" /><path d="M 56,21 L 56,17" /><path d="M 56,17 L 49,15" /><path d="M 49,15 L 46,19" /></g>
  <circle cx="26" cy="86" r="5px" style="fill:#d0d00080" />
</svg>
