<?xml version="1.0" encoding="UTF-8" standalone="no"?>
<!DOCTYPE svg PUBLIC "-//W3C//DTD SVG 1.1//EN" "http://www.w3.org/Graphics/SVG/1.1/DTD/svg11.dtd">
<svg xmlns="http://www.w3.org/2000/svg" xmlns:xlink="http://www.w3.org/1999/xlink" viewBox="-7 -8 92 80" style="background-color: #00000066">
  <path d="M 15,60 L 15,25 L 5,25 L 5,5 L 15,5 L 15,10 L 25,10 L 25,5 L 35,5 L 35,10 L 45,10 L 45,5 L 55,5 L 55,10 L 65,10 L 65,5 L 75,5 L 75,25 L 65,25 L 65,60" style="fill:#ffffff; fill-rule:evenodd; stroke:none" />
  <g style="fill:none;stroke:#ff0000;stroke-linecap:round"><path d="M 6,16 L 3,7" /><path d="M 3,7 L 5,2" /><path d="M 5,2 L 13,10" /><path d="M 13,10 L 6,16" /><path d="M 13,10 L 22,11" /><path d="M 22,11 L 30,6" /><path d="M 30,6 L 32,10" /><path d="M 32,10 L 25,18" /><path d="M 25,18 L 22,11" /><path d="M 6,16 L 8,30" /><path d="M 8,30 L 17,33" /><path d="M 17,33 L 30,23" /><path d="M 30,23 L 25,18" /><path d="M 20,50 L 20,55" /><path d="M 20,55 L 16,56" /><path d="M 16,56 L 16,58" /><path d="M 16,58 L 23,58" /><path d="M 23,58 L 27,51" /><path d="M 27,51 L 28,56" /><path d="M 28,56 L 24,60" /><path d="M 24,60 L 24,62" /><path d="M 24,62 L 30,62" /><path d="M 30,62 L 34,51" /><path d="M 34,51 L 27,51" /><path d="M 27,51 L 20,50" /><path d="M 8,30 L 13,46" /><path d="M 13,46 L 20,50" /><path d="M 34,51 L 30,23" /><path d="M 30,23 L 42,24" /><path d="M 42,24 L 57,21" /><path d="M 57,21 L 54,45" /><path d="M 54,45 L 34,51" /><path d="M 58,46 L 57,50" /><path d="M 57,50 L 53,51" /><path d="M 53,51 L 53,53" /><path d="M 53,53 L 59,53" /><path d="M 59,53 L 62,48" /><path d="M 62,48 L 60,55" /><path d="M 60,55 L 57,56" /><path d="M 57,56 L 57,58" /><path d="M 57,58 L 63,58" /><path d="M 63,58 L 66,48" /><path d="M 66,48 L 62,48" /><path d="M 62,48 L 58,46" /><path d="M 58,46 L 54,45" /><path d="M 66,48 L 74,32" /><path d="M 74,32 L 68,23" /><path d="M 68,23 L 57,21" /></g>
  <circle cx="75" cy="5" r="5px" style="fill:#0000ff80" /><circle cx="65" cy="44" r="5px" style="fill:#d0d00080" />
</svg>
