<?xml version="1.0" encoding="UTF-8" standalone="no"?>
<!DOCTYPE svg PUBLIC "-//W3C//DTD SVG 1.1//EN" "http://www.w3.org/Graphics/SVG/1.1/DTD/svg11.dtd">
<svg xmlns="http://www.w3.org/2000/svg" xmlns:xlink="http://www.w3.org/1999/xlink" viewBox="-10 -10 60 60" style="background-color: #00000066">
  <path d="M 28,0 L 31,5 L 40,6 L 40,16 L 35,19 L 24,14 L 25,21 L 25,27 L 26,34 L 28,40 L 17,39 L 0,40 L 10,33 L 18,28 L 10,24 L 2,24 L 7,15 L 0,13 L 0,0 L 10,0 L 17,1" style="fill:#ffffff; fill-rule:evenodd; stroke:none" />
  <g style="fill:none;stroke:#ff0000;stroke-linecap:round"><path d="M 0,20 L 20,0" /><path d="M 0,20 L 20,40" /><path d="M 20,0 L 40,20" /><path d="M 20,40 L 40,20" /></g>
  <circle cx="0" cy="40" r="5px" style="fill:#0000ff80" />
</svg>
