<?xml version="1.0" encoding="UTF-8" standalone="no"?>
<!DOCTYPE svg PUBLIC "-//W3C//DTD SVG 1.1//EN" "http://www.w3.org/Graphics/SVG/1.1/DTD/svg11.dtd">
<svg xmlns="http://www.w3.org/2000/svg" xmlns:xlink="http://www.w3.org/1999/xlink" viewBox="-10 -10 60 60" style="background-color: #00000066">
  <path d="M 0,0 L 14,0 L 16,7 L 26,6 L 20,0 L 31,0 L 40,7 L 40,17 L 35,21 L 29,14 L 20,16 L 18,22 L 16,29 L 31,27 L 40,27 L 40,34 L 28,40 L 25,34 L 17,36 L 8,40 L 11,22 L 0,32 L 0,23 L 1,8" style="fill:#ffffff; fill-rule:evenodd; stroke:none" />
  <g style="fill:none;stroke:#ff0000;stroke-linecap:round"><path d="M 0,20 L 20,0" /><path d="M 0,20 L 20,40" /><path d="M 20,0 L 40,20" /><path d="M 20,40 L 40,20" /></g>
  <circle cx="28" cy="40" r="5px" style="fill:#d0d00080" /><circle cx="9" cy="12" r="5px" style="fill:#d0d00080" />
</svg>
