<?xml version="1.0" encoding="UTF-8" standalone="no"?>
<!DOCTYPE svg PUBLIC "-//W3C//DTD SVG 1.1//EN" "http://www.w3.org/Graphics/SVG/1.1/DTD/svg11.dtd">
<svg xmlns="http://www.w3.org/2000/svg" xmlns:xlink="http://www.w3.org/1999/xlink" viewBox="-10 -10 60 61" style="background-color: #00000066">
  <path d="M 3,0 L 9,0 L 9,8 L 12,16 L 18,4 L 19,18 L 28,6 L 32,0 L 40,0 L 36,7 L 37,14 L 35,22 L 25,21 L 27,27 L 30,34 L 26,41 L 18,32 L 17,40 L 8,41 L 0,41 L 3,33 L 0,27 L 6,26 L 6,20 L 0,11 L 0,5" style="fill:#ffffff; fill-rule:evenodd; stroke:none" />
  <g style="fill:none;stroke:#ff0000;stroke-linecap:round"><path d="M 0,20 L 20,0" /><path d="M 0,20 L 20,40" /><path d="M 20,0 L 40,20" /><path d="M 20,40 L 40,20" /></g>
</svg>
