<?xml version="1.0" encoding="UTF-8" standalone="no"?>
<!DOCTYPE svg PUBLIC "-//W3C//DTD SVG 1.1//EN" "http://www.w3.org/Graphics/SVG/1.1/DTD/svg11.dtd">
<svg xmlns="http://www.w3.org/2000/svg" xmlns:xlink="http://www.w3.org/1999/xlink" viewBox="5 -5 110 125" style="background-color: #00000066">
  <path d="M 50,70 L 35,75 L 35,65 L 15,55 L 30,45 L 25,30 L 30,30 L 30,15 L 45,25 L 55,35 L 55,15 L 65,20 L 80,5 L 85,25 L 90,25 L 80,45 L 95,45 L 105,50 L 100,65 L 85,70 L 90,85 L 65,80 L 60,85 L 55,70 L 50,110 L 45,110" style="fill:#ffffff; fill-rule:evenodd; stroke:none" />
  <g style="fill:none;stroke:#ff0000;stroke-linecap:round"><path d="M 50,25 L 60,20" /><path d="M 60,20 L 70,25" /><path d="M 70,25 L 75,35" /><path d="M 75,35 L 65,45" /><path d="M 65,45 L 55,45" /><path d="M 55,45 L 45,35" /><path d="M 45,35 L 50,25" /><path d="M 70,25 L 80,25" /><path d="M 80,25 L 85,10" /><path d="M 50,25 L 40,25" /><path d="M 40,25 L 35,10" /><path d="M 65,45 L 70,50" /><path d="M 70,50 L 70,60" /><path d="M 70,60 L 65,65" /><path d="M 65,65 L 65,70" /><path d="M 55,45 L 50,50" /><path d="M 50,50 L 50,60" /><path d="M 50,60 L 55,65" /><path d="M 55,65 L 55,70" /><path d="M 70,50 L 80,40" /><path d="M 80,40 L 90,35" /><path d="M 50,50 L 40,40" /><path d="M 40,40 L 30,35" /><path d="M 70,60 L 90,55" /><path d="M 90,55 L 105,70" /><path d="M 50,60 L 30,55" /><path d="M 30,55 L 15,70" /><path d="M 65,70 L 70,75" /><path d="M 70,75 L 70,95" /><path d="M 70,95 L 60,105" /><path d="M 60,105 L 50,95" /><path d="M 50,95 L 50,75" /><path d="M 50,75 L 55,70" /><path d="M 55,65 L 35,75" /><path d="M 35,75 L 25,100" /><path d="M 65,65 L 85,75" /><path d="M 85,75 L 95,100" /><path d="M 55,70 L 65,70" /></g>
  <circle cx="45" cy="110" r="5px" style="fill:#d0d00080" /><circle cx="39" cy="38" r="5px" style="fill:#d0d00080" />
</svg>
