<?xml version="1.0" encoding="UTF-8" standalone="no"?>
<!DOCTYPE svg PUBLIC "-//W3C//DTD SVG 1.1//EN" "http://www.w3.org/Graphics/SVG/1.1/DTD/svg11.dtd">
<svg xmlns="http://www.w3.org/2000/svg" xmlns:xlink="http://www.w3.org/1999/xlink" viewBox="-10 -10 64 69" style="background-color: #00000066">
  <path d="M 14,10 L 21,6 L 28,1 L 36,0 L 44,0 L 43,8 L 44,16 L 44,24 L 39,35 L 30,40 L 39,43 L 27,49 L 20,49 L 10,43 L 2,39 L 0,32 L 0,5 L 7,12" style="fill:#ffffff; fill-rule:evenodd; stroke:none" />
  <g style="fill:none;stroke:#ff0000;stroke-linecap:round"><path d="M 24,0 L 0,15" /><path d="M 24,0 L 44,20" /><path d="M 0,15 L 20,35" /><path d="M 0,15 L 24,6" /><path d="M 44,20 L 20,35" /><path d="M 20,35 L 24,6" /></g>
  <circle cx="0" cy="5" r="5px" style="fill:#0000ff80" />
</svg>
