<?xml version="1.0" encoding="UTF-8" standalone="no"?>
<!DOCTYPE svg PUBLIC "-//W3C//DTD SVG 1.1//EN" "http://www.w3.org/Graphics/SVG/1.1/DTD/svg11.dtd">
<svg xmlns="http://www.w3.org/2000/svg" xmlns:xlink="http://www.w3.org/1999/xlink" viewBox="-10 -10 56 61" style="background-color: #00000066">
  <path d="M 14,20 L 12,13 L 8,8 L 8,0 L 17,3 L 23,0 L 29,2 L 32,7 L 36,11 L 36,18 L 20,10 L 25,20 L 27,29 L 23,35 L 22,41 L 14,41 L 8,35 L 0,30 L 5,26 L 2,17" style="fill:#ffffff; fill-rule:evenodd; stroke:none" />
  <g style="fill:none;stroke:#ff0000;stroke-linecap:round"><path d="M 0,7 L 0,31" /><path d="M 0,7 L 22,0" /><path d="M 0,31 L 22,38" /><path d="M 22,0 L 36,19" /><path d="M 22,38 L 36,19" /></g>
  <circle cx="26" cy="1" r="5px" style="fill:#0000ff80" />
</svg>
