<?xml version="1.0" encoding="UTF-8" standalone="no"?>
<!DOCTYPE svg PUBLIC "-//W3C//DTD SVG 1.1//EN" "http://www.w3.org/Graphics/SVG/1.1/DTD/svg11.dtd">
<svg xmlns="http://www.w3.org/2000/svg" xmlns:xlink="http://www.w3.org/1999/xlink" viewBox="-10 -10 109 93" style="background-color: #00000066">
  <path d="M 0,41 L 21,27 L 69,0 L 89,20 L 69,40 L 28,73 L 0,69" style="fill:#ffffff; fill-rule:evenodd; stroke:none" />
  <g style="fill:none;stroke:#ff0000;stroke-linecap:round"><path d="M 10,0 L 8,28" /><path d="M 10,0 L 33,11" /><path d="M 8,28 L 0,55" /><path d="M 33,11 L 9,27" /><path d="M 33,11 L 34,40" /><path d="M 0,55 L 9,27" /><path d="M 9,27 L 34,40" /><path d="M 9,27 L 10,55" /><path d="M 34,40 L 57,24" /><path d="M 34,40 L 10,55" /><path d="M 57,24 L 35,42" /><path d="M 10,55 L 35,42" /></g>
</svg>
