<?xml version="1.0" encoding="UTF-8" standalone="no"?>
<!DOCTYPE svg PUBLIC "-//W3C//DTD SVG 1.1//EN" "http://www.w3.org/Graphics/SVG/1.1/DTD/svg11.dtd">
<svg xmlns="http://www.w3.org/2000/svg" xmlns:xlink="http://www.w3.org/1999/xlink" viewBox="-10 -10 56 58" style="background-color: #00000066">
  <path d="M 23,0 L 32,2 L 24,6 L 31,9 L 36,12 L 36,26 L 29,18 L 24,22 L 21,27 L 30,32 L 18,34 L 10,38 L 12,30 L 6,28 L 0,32 L 0,20 L 8,22 L 5,14 L 1,6 L 0,0 L 6,0 L 12,3 L 17,0" style="fill:#ffffff; fill-rule:evenodd; stroke:none" />
  <g style="fill:none;stroke:#ff0000;stroke-linecap:round"><path d="M 0,7 L 0,31" /><path d="M 0,7 L 22,0" /><path d="M 0,31 L 22,38" /><path d="M 22,0 L 36,19" /><path d="M 22,38 L 36,19" /></g>
  <circle cx="36" cy="26" r="5px" style="fill:#0000ff80" /><circle cx="18" cy="15" r="5px" style="fill:#0000ff80" />
</svg>
