<?xml version="1.0" encoding="UTF-8" standalone="no"?>
<!DOCTYPE svg PUBLIC "-//W3C//DTD SVG 1.1//EN" "http://www.w3.org/Graphics/SVG/1.1/DTD/svg11.dtd">
<svg xmlns="http://www.w3.org/2000/svg" xmlns:xlink="http://www.w3.org/1999/xlink" viewBox="-10 -10 74 67" style="background-color: #00000066">
  <path d="M 54,0 L 54,9 L 52,18 L 49,26 L 54,34 L 54,43 L 45,47 L 40,36 L 28,47 L 14,47 L 15,39 L 7,32 L 0,24 L 4,17 L 0,8 L 0,0" style="fill:#ffffff; fill-rule:evenodd; stroke:none" />
  <g style="fill:none;stroke:#ff0000;stroke-linecap:round"><path d="M 48,2 L 54,29" /><path d="M 48,2 L 27,20" /><path d="M 48,2 L 0,27" /><path d="M 54,29 L 27,20" /><path d="M 54,29 L 27,20" /><path d="M 27,20 L 7,0" /><path d="M 27,20 L 0,27" /><path d="M 27,20 L 7,0" /><path d="M 7,0 L 0,27" /></g>
  <circle cx="27" cy="27" r="5px" style="fill:#0000ff80" /><circle cx="39" cy="0" r="5px" style="fill:#00ffff80" /><circle cx="15" cy="0" r="5px" style="fill:#0000ff80" />
</svg>
