<?xml version="1.0" encoding="UTF-8" standalone="no"?>
<!DOCTYPE svg PUBLIC "-//W3C//DTD SVG 1.1//EN" "http://www.w3.org/Graphics/SVG/1.1/DTD/svg11.dtd">
<svg xmlns="http://www.w3.org/2000/svg" xmlns:xlink="http://www.w3.org/1999/xlink" viewBox="-5 -5 110 110" style="background-color: #00000066">
  <path d="M 5,5 L 35,15 L 65,15 L 95,5 L 95,50 L 70,70 L 70,90 L 50,95 L 30,90 L 30,70 L 5,50" style="fill:#ffffff; fill-rule:evenodd; stroke:none" />
  <g style="fill:none;stroke:#ff0000;stroke-linecap:round"><path d="M 50,95 L 60,80" /><path d="M 60,80 L 40,80" /><path d="M 40,80 L 50,95" /><path d="M 60,80 L 70,65" /><path d="M 70,65 L 30,65" /><path d="M 30,65 L 40,80" /><path d="M 30,65 L 20,50" /><path d="M 70,65 L 80,50" /><path d="M 30,55 L 30,50" /><path d="M 30,50 L 35,45" /><path d="M 35,45 L 40,45" /><path d="M 40,45 L 45,50" /><path d="M 45,50 L 45,55" /><path d="M 45,55 L 40,60" /><path d="M 40,60 L 35,60" /><path d="M 35,60 L 30,55" /><path d="M 65,60 L 70,55" /><path d="M 70,55 L 70,50" /><path d="M 70,50 L 65,45" /><path d="M 65,45 L 60,45" /><path d="M 60,45 L 55,50" /><path d="M 55,50 L 55,55" /><path d="M 55,55 L 60,60" /><path d="M 60,60 L 65,60" /><path d="M 20,50 L 10,35" /><path d="M 90,35 L 80,50" /><path d="M 80,50 L 70,50" /><path d="M 55,50 L 45,50" /><path d="M 30,50 L 20,50" /><path d="M 30,5 L 15,5" /><path d="M 15,5 L 10,10" /><path d="M 10,10 L 10,25" /><path d="M 10,25 L 15,30" /><path d="M 15,30 L 30,30" /><path d="M 40,5 L 40,20" /><path d="M 40,20 L 40,30" /><path d="M 40,30 L 60,30" /><path d="M 60,30 L 55,20" /><path d="M 55,20 L 60,5" /><path d="M 60,5 L 40,5" /><path d="M 40,20 L 55,20" /><path d="M 90,5 L 80,30" /><path d="M 80,30 L 70,5" /><path d="M 30,30 L 30,35" /><path d="M 60,30 L 60,35" /><path d="M 80,30 L 80,35" /><path d="M 90,35 L 80,35" /><path d="M 80,35 L 60,35" /><path d="M 60,35 L 30,35" /><path d="M 30,35 L 10,35" /></g>
  <circle cx="95" cy="26" r="5px" style="fill:#0000ff80" /><circle cx="5" cy="32" r="5px" style="fill:#0000ff80" />
</svg>
