<?xml version="1.0" encoding="UTF-8" standalone="no"?>
<!DOCTYPE svg PUBLIC "-//W3C//DTD SVG 1.1//EN" "http://www.w3.org/Graphics/SVG/1.1/DTD/svg11.dtd">
<svg xmlns="http://www.w3.org/2000/svg" xmlns:xlink="http://www.w3.org/1999/xlink" viewBox="-10 -10 84 87" style="background-color: #00000066">
  <path d="M 32,0 L 43,6 L 52,0 L 64,3 L 64,19 L 60,35 L 55,43 L 64,53 L 53,56 L 60,66 L 36,66 L 23,67 L 3,67 L 2,54 L 1,37 L 0,21 L 0,5 L 11,0 L 22,1" style="fill:#ffffff; fill-rule:evenodd; stroke:none" />
  <g style="fill:none;stroke:#ff0000;stroke-linecap:round"><path d="M 28,0 L 23,32" /><path d="M 28,0 L 34,64" /><path d="M 28,0 L 56,16" /><path d="M 23,32 L 34,64" /><path d="M 23,32 L 56,16" /><path d="M 23,32 L 0,58" /><path d="M 34,64 L 0,58" /><path d="M 56,16 L 21,29" /><path d="M 0,58 L 21,29" /></g>
</svg>
