<?xml version="1.0" encoding="UTF-8" standalone="no"?>
<!DOCTYPE svg PUBLIC "-//W3C//DTD SVG 1.1//EN" "http://www.w3.org/Graphics/SVG/1.1/DTD/svg11.dtd">
<svg xmlns="http://www.w3.org/2000/svg" xmlns:xlink="http://www.w3.org/1999/xlink" viewBox="-10 -10 76 73" style="background-color: #00000066">
  <path d="M 0,5 L 6,0 L 34,0 L 36,8 L 43,15 L 48,0 L 56,2 L 56,42 L 52,49 L 45,53 L 37,52 L 28,53 L 19,52 L 7,53 L 11,40 L 0,43" style="fill:#ffffff; fill-rule:evenodd; stroke:none" />
  <g style="fill:none;stroke:#ff0000;stroke-linecap:round"><path d="M 26,21 L 48,10" /><path d="M 26,21 L 25,44" /><path d="M 48,10 L 25,7" /><path d="M 48,10 L 0,20" /><path d="M 25,44 L 10,25" /><path d="M 25,44 L 10,0" /><path d="M 25,7 L 10,25" /><path d="M 25,7 L 0,20" /><path d="M 10,25 L 10,0" /><path d="M 0,20 L 10,0" /></g>
</svg>
