<?xml version="1.0" encoding="UTF-8" standalone="no"?>
<!DOCTYPE svg PUBLIC "-//W3C//DTD SVG 1.1//EN" "http://www.w3.org/Graphics/SVG/1.1/DTD/svg11.dtd">
<svg xmlns="http://www.w3.org/2000/svg" xmlns:xlink="http://www.w3.org/1999/xlink" viewBox="-10 -10 95 109" style="background-color: #00000066">
  <path d="M 22,0 L 21,13 L 43,8 L 18,45 L 57,13 L 57,31 L 48,41 L 61,45 L 74,42 L 75,89 L 63,79 L 48,89 L 49,72 L 61,59 L 43,53 L 36,70 L 25,84 L 15,76 L 4,89 L 1,72 L 0,51 L 6,40 L 13,30 L 0,25 L 4,13 L 5,1" style="fill:#ffffff; fill-rule:evenodd; stroke:none" />
  <g style="fill:none;stroke:#ff0000;stroke-linecap:round"><path d="M 10,10 L 10,44" /><path d="M 10,10 L 40,27" /><path d="M 10,44 L 18,77" /><path d="M 10,44 L 40,27" /><path d="M 18,77 L 51,79" /><path d="M 40,27 L 65,50" /><path d="M 51,79 L 65,50" /></g>
</svg>
