<?xml version="1.0" encoding="UTF-8" standalone="no"?>
<!DOCTYPE svg PUBLIC "-//W3C//DTD SVG 1.1//EN" "http://www.w3.org/Graphics/SVG/1.1/DTD/svg11.dtd">
<svg xmlns="http://www.w3.org/2000/svg" xmlns:xlink="http://www.w3.org/1999/xlink" viewBox="-10 -10 105 119" style="background-color: #00000066">
  <path d="M 24,32 L 65,0 L 85,20 L 78,61 L 53,91 L 2,89 L 0,60" style="fill:#ffffff; fill-rule:evenodd; stroke:none" />
  <g style="fill:none;stroke:#ff0000;stroke-linecap:round"><path d="M 0,82 L 22,99" /><path d="M 0,82 L 0,46" /><path d="M 0,82 L 25,67" /><path d="M 22,99 L 4,79" /><path d="M 22,99 L 5,51" /><path d="M 0,46 L 25,67" /><path d="M 0,46 L 18,29" /><path d="M 0,46 L 18,0" /><path d="M 25,67 L 4,79" /><path d="M 25,67 L 32,41" /><path d="M 4,79 L 5,51" /><path d="M 18,29 L 18,0" /><path d="M 18,29 L 14,58" /><path d="M 5,51 L 32,41" /><path d="M 5,51 L 39,65" /><path d="M 32,41 L 14,58" /><path d="M 32,41 L 39,65" /><path d="M 18,0 L 21,29" /><path d="M 14,58 L 39,65" /><path d="M 14,58 L 21,29" /><path d="M 39,65 L 21,29" /></g>
</svg>
