<?xml version="1.0" encoding="UTF-8" standalone="no"?>
<!DOCTYPE svg PUBLIC "-//W3C//DTD SVG 1.1//EN" "http://www.w3.org/Graphics/SVG/1.1/DTD/svg11.dtd">
<svg xmlns="http://www.w3.org/2000/svg" xmlns:xlink="http://www.w3.org/1999/xlink" viewBox="-10 -10 109 88" style="background-color: #00000066">
  <path d="M 2,24 L 12,0 L 22,0 L 31,50 L 30,61 L 18,58 L 7,44 L 0,29" style="fill:#ffffff; fill-rule:evenodd; stroke:none" />
  <g style="fill:none;stroke:#ff0000;stroke-linecap:round"><path d="M 44,58 L 44,0" /><path d="M 44,0 L 27,41" /><path d="M 27,41 L 44,58" /><path d="M 27,41 L 30,53" /><path d="M 30,53 L 44,58" /><path d="M 44,58 L 44,63" /><path d="M 44,63 L 33,68" /><path d="M 33,68 L 30,53" /><path d="M 44,63 L 56,68" /><path d="M 56,68 L 59,53" /><path d="M 59,53 L 44,58" /><path d="M 44,58 L 61,41" /><path d="M 61,41 L 59,53" /><path d="M 61,41 L 44,0" /><path d="M 56,68 L 89,21" /><path d="M 89,21 L 44,63" /><path d="M 33,68 L 9,34" /><path d="M 9,34 L 14,34" /><path d="M 14,34 L 44,63" /><path d="M 14,34 L 0,48" /><path d="M 0,48 L 9,34" /></g>
  <circle cx="24" cy="16" r="5px" style="fill:#0000ff80" /><circle cx="9" cy="12" r="5px" style="fill:#0000ff80" /><circle cx="27" cy="36" r="5px" style="fill:#ffa50080" />
</svg>
