<?xml version="1.0" encoding="UTF-8" standalone="no"?>
<!DOCTYPE svg PUBLIC "-//W3C//DTD SVG 1.1//EN" "http://www.w3.org/Graphics/SVG/1.1/DTD/svg11.dtd">
<svg xmlns="http://www.w3.org/2000/svg" xmlns:xlink="http://www.w3.org/1999/xlink" viewBox="-5 1 114 103" style="background-color: #00000066">
  <path d="M 25,50 L 30,29 L 45,11 L 58,11 L 73,29 L 77,50 L 94,57 L 99,71 L 84,78 L 62,82 L 41,82 L 20,77 L 5,71 L 12,57" style="fill:#ffffff; fill-rule:evenodd; stroke:none" />
  <g style="fill:none;stroke:#ff0000;stroke-linecap:round"><path d="M 28,94 L 45,93" /><path d="M 45,93 L 44,88" /><path d="M 44,88 L 41,86" /><path d="M 41,86 L 41,90" /><path d="M 41,90 L 31,88" /><path d="M 31,88 L 27,90" /><path d="M 27,90 L 28,94" /><path d="M 41,90 L 45,93" /><path d="M 57,88 L 60,87" /><path d="M 60,87 L 61,90" /><path d="M 61,90 L 68,89" /><path d="M 68,89 L 69,94" /><path d="M 69,94 L 57,94" /><path d="M 57,94 L 57,88" /><path d="M 61,90 L 57,94" /><path d="M 44,88 L 57,88" /><path d="M 60,87 L 68,83" /><path d="M 68,83 L 65,72" /><path d="M 65,72 L 35,68" /><path d="M 35,68 L 35,81" /><path d="M 35,81 L 41,86" /><path d="M 35,68 L 30,70" /><path d="M 30,70 L 35,81" /><path d="M 65,72 L 70,68" /><path d="M 70,68 L 72,73" /><path d="M 72,73 L 68,83" /><path d="M 72,73 L 81,71" /><path d="M 81,71 L 84,67" /><path d="M 84,67 L 85,71" /><path d="M 85,71 L 81,71" /><path d="M 85,71 L 85,82" /><path d="M 85,82 L 89,87" /><path d="M 89,87 L 80,84" /><path d="M 80,84 L 85,82" /><path d="M 35,81 L 22,72" /><path d="M 22,72 L 20,69" /><path d="M 20,69 L 18,72" /><path d="M 18,72 L 22,72" /><path d="M 20,69 L 25,54" /><path d="M 25,54 L 23,45" /><path d="M 23,45 L 32,50" /><path d="M 32,50 L 25,54" /><path d="M 35,68 L 42,55" /><path d="M 42,55 L 50,49" /><path d="M 50,49 L 55,55" /><path d="M 55,55 L 65,72" /><path d="M 55,55 L 57,47" /><path d="M 57,47 L 66,43" /><path d="M 66,43 L 64,34" /><path d="M 64,34 L 74,38" /><path d="M 74,38 L 72,30" /><path d="M 72,30 L 64,34" /><path d="M 66,43 L 74,38" /><path d="M 42,55 L 37,47" /><path d="M 37,47 L 39,34" /><path d="M 39,34 L 44,29" /><path d="M 44,29 L 33,28" /><path d="M 33,28 L 39,34" /><path d="M 44,29 L 39,22" /><path d="M 39,22 L 33,28" /></g>
  <circle cx="99" cy="71" r="5px" style="fill:#0000ff80" /><circle cx="80" cy="65" r="5px" style="fill:#ffa50080" /><circle cx="65" cy="20" r="5px" style="fill:#0000ff80" />
</svg>
