<?xml version="1.0" encoding="UTF-8" standalone="no"?>
<!DOCTYPE svg PUBLIC "-//W3C//DTD SVG 1.1//EN" "http://www.w3.org/Graphics/SVG/1.1/DTD/svg11.dtd">
<svg xmlns="http://www.w3.org/2000/svg" xmlns:xlink="http://www.w3.org/1999/xlink" viewBox="-10 -10 72 123" style="background-color: #00000066">
  <path d="M 21,35 L 0,22 L 26,14 L 0,8 L 15,0 L 45,0 L 52,12 L 52,48 L 51,60 L 49,86 L 38,73 L 17,85 L 31,92 L 24,103 L 2,103 L 0,85 L 0,52 L 8,41" style="fill:#ffffff; fill-rule:evenodd; stroke:none" />
  <g style="fill:none;stroke:#ff0000;stroke-linecap:round"><path d="M 0,75 L 20,55" /><path d="M 0,75 L 20,95" /><path d="M 7,0 L 10,26" /><path d="M 7,0 L 29,13" /><path d="M 10,26 L 20,55" /><path d="M 10,26 L 29,13" /><path d="M 20,55 L 40,75" /><path d="M 20,55 L 46,52" /><path d="M 20,95 L 40,75" /><path d="M 29,13 L 48,28" /><path d="M 40,75 L 46,52" /><path d="M 46,52 L 48,28" /></g>
</svg>
