<?xml version="1.0" encoding="UTF-8" standalone="no"?>
<!DOCTYPE svg PUBLIC "-//W3C//DTD SVG 1.1//EN" "http://www.w3.org/Graphics/SVG/1.1/DTD/svg11.dtd">
<svg xmlns="http://www.w3.org/2000/svg" xmlns:xlink="http://www.w3.org/1999/xlink" viewBox="-10 -10 162 136" style="background-color: #00000066">
  <path d="M 41,0 L 142,67 L 136,96 L 102,116 L 51,93 L 20,63 L 0,43" style="fill:#ffffff; fill-rule:evenodd; stroke:none" />
  <g style="fill:none;stroke:#ff0000;stroke-linecap:round"><path d="M 20,54 L 25,26" /><path d="M 20,54 L 48,59" /><path d="M 20,54 L 53,31" /><path d="M 25,26 L 53,31" /><path d="M 25,26 L 50,45" /><path d="M 48,59 L 53,31" /><path d="M 48,59 L 24,36" /><path d="M 53,31 L 24,36" /><path d="M 53,31 L 82,38" /><path d="M 50,45 L 82,38" /><path d="M 10,16 L 24,36" /><path d="M 10,16 L 22,35" /><path d="M 10,16 L 44,22" /><path d="M 24,36 L 44,22" /><path d="M 82,38 L 73,8" /><path d="M 22,35 L 44,22" /><path d="M 22,35 L 26,0" /><path d="M 44,22 L 73,8" /><path d="M 44,22 L 26,0" /><path d="M 73,8 L 45,24" /><path d="M 0,25 L 26,0" /><path d="M 0,25 L 38,34" /><path d="M 26,0 L 45,24" /><path d="M 26,0 L 38,34" /><path d="M 45,24 L 23,8" /><path d="M 38,34 L 23,8" /></g>
  <circle cx="65" cy="48" r="5px" style="fill:#d0d00080" /><circle cx="42" cy="21" r="5px" style="fill:#0000ff80" /><circle cx="114" cy="99" r="5px" style="fill:#d0d00080" />
</svg>
