<?xml version="1.0" encoding="UTF-8" standalone="no"?>
<!DOCTYPE svg PUBLIC "-//W3C//DTD SVG 1.1//EN" "http://www.w3.org/Graphics/SVG/1.1/DTD/svg11.dtd">
<svg xmlns="http://www.w3.org/2000/svg" xmlns:xlink="http://www.w3.org/1999/xlink" viewBox="-10 -10 127 142" style="background-color: #00000066">
  <path d="M 55,0 L 61,3 L 68,33 L 85,43 L 107,36 L 94,72 L 101,88 L 95,105 L 70,110 L 47,117 L 53,96 L 63,72 L 39,75 L 22,69 L 19,122 L 2,81 L 0,53 L 0,30" style="fill:#ffffff; fill-rule:evenodd; stroke:none" />
  <g style="fill:none;stroke:#ff0000;stroke-linecap:round"><path d="M 0,100 L 15,68" /><path d="M 0,100 L 29,122" /><path d="M 15,68 L 52,71" /><path d="M 15,68 L 61,4" /><path d="M 29,122 L 59,105" /><path d="M 29,122 L 94,108" /><path d="M 52,37 L 52,71" /><path d="M 52,37 L 61,4" /><path d="M 52,37 L 82,54" /><path d="M 52,71 L 59,105" /><path d="M 52,71 L 82,54" /><path d="M 59,105 L 94,108" /><path d="M 61,4 L 96,0" /><path d="M 82,54 L 104,34" /><path d="M 82,54 L 107,73" /><path d="M 94,108 L 107,73" /><path d="M 96,0 L 104,34" /><path d="M 104,34 L 107,73" /></g>
  <circle cx="19" cy="122" r="5px" style="fill:#d0d00080" />
</svg>
