<?xml version="1.0" encoding="UTF-8" standalone="no"?>
<!DOCTYPE svg PUBLIC "-//W3C//DTD SVG 1.1//EN" "http://www.w3.org/Graphics/SVG/1.1/DTD/svg11.dtd">
<svg xmlns="http://www.w3.org/2000/svg" xmlns:xlink="http://www.w3.org/1999/xlink" viewBox="-10 -10 124 77" style="background-color: #00000066">
  <path d="M 0,4 L 11,0 L 21,12 L 27,0 L 41,1 L 56,0 L 104,0 L 104,25 L 93,29 L 97,41 L 104,53 L 82,57 L 67,57 L 58,49 L 40,57 L 25,57 L 12,53 L 0,56" style="fill:#ffffff; fill-rule:evenodd; stroke:none" />
  <g style="fill:none;stroke:#ff0000;stroke-linecap:round"><path d="M 26,37 L 22,12" /><path d="M 26,37 L 4,21" /><path d="M 22,12 L 2,20" /><path d="M 2,20 L 5,0" /><path d="M 2,20 L 24,29" /><path d="M 4,21 L 24,29" /><path d="M 5,0 L 25,12" /><path d="M 24,29 L 2,19" /><path d="M 25,12 L 2,19" /><path d="M 25,12 L 5,23" /><path d="M 2,19 L 20,34" /><path d="M 5,23 L 0,46" /><path d="M 5,23 L 20,40" /><path d="M 20,34 L 0,46" /><path d="M 0,46 L 20,40" /></g>
  <circle cx="104" cy="53" r="5px" style="fill:#d0d00080" /><circle cx="75" cy="18" r="5px" style="fill:#ffa50080" /><circle cx="42" cy="21" r="5px" style="fill:#0000ff80" />
</svg>
