<?xml version="1.0" encoding="UTF-8" standalone="no"?>
<!DOCTYPE svg PUBLIC "-//W3C//DTD SVG 1.1//EN" "http://www.w3.org/Graphics/SVG/1.1/DTD/svg11.dtd">
<svg xmlns="http://www.w3.org/2000/svg" xmlns:xlink="http://www.w3.org/1999/xlink" viewBox="-7 -7 206 206" style="background-color: #00000066">
  <path d="M 164,164 L 121,189 L 71,189 L 28,164 L 3,121 L 3,71 L 28,28 L 71,3 L 121,3 L 164,28 L 189,71 L 96,96 L 189,121" style="fill:#ffffff; fill-rule:evenodd; stroke:none" />
  <g style="fill:none;stroke:#ff0000;stroke-linecap:round"><path d="M 36,141 L 36,156" /><path d="M 36,156 L 41,156" /><path d="M 41,156 L 56,141" /><path d="M 56,141 L 36,141" /><path d="M 36,141 L 36,86" /><path d="M 36,86 L 51,56" /><path d="M 51,56 L 96,36" /><path d="M 96,36 L 141,56" /><path d="M 141,56 L 156,86" /><path d="M 156,86 L 156,141" /><path d="M 156,141 L 136,141" /><path d="M 136,141 L 151,156" /><path d="M 151,156 L 156,156" /><path d="M 156,156 L 156,141" /><path d="M 136,141 L 121,156" /><path d="M 121,156 L 106,156" /><path d="M 106,156 L 106,141" /><path d="M 106,141 L 136,141" /><path d="M 56,141 L 86,141" /><path d="M 86,141 L 86,156" /><path d="M 86,156 L 71,156" /><path d="M 71,156 L 56,141" /><path d="M 86,141 L 106,141" /><path d="M 71,81 L 71,96" /><path d="M 71,96 L 86,96" /><path d="M 86,96 L 86,81" /><path d="M 86,81 L 71,81" /><path d="M 106,81 L 106,96" /><path d="M 106,96 L 121,96" /><path d="M 121,96 L 121,81" /><path d="M 121,81 L 106,81" /><path d="M 51,56 L 71,81" /><path d="M 71,81 L 36,86" /><path d="M 141,56 L 121,81" /><path d="M 121,81 L 156,86" /><path d="M 46,131 L 56,116" /><path d="M 56,116 L 66,116" /><path d="M 66,116 L 71,131" /><path d="M 71,131 L 86,131" /><path d="M 86,131 L 91,116" /><path d="M 91,116 L 101,116" /><path d="M 101,116 L 106,131" /><path d="M 106,131 L 121,131" /><path d="M 121,131 L 126,116" /><path d="M 126,116 L 136,116" /><path d="M 136,116 L 146,131" /><path d="M 86,96 L 91,116" /><path d="M 106,96 L 101,116" /></g>
  <circle cx="183" cy="61" r="5px" style="fill:#d0d00080" />
</svg>
