<?xml version="1.0" encoding="UTF-8" standalone="no"?>
<!DOCTYPE svg PUBLIC "-//W3C//DTD SVG 1.1//EN" "http://www.w3.org/Graphics/SVG/1.1/DTD/svg11.dtd">
<svg xmlns="http://www.w3.org/2000/svg" xmlns:xlink="http://www.w3.org/1999/xlink" viewBox="-3 -9 81 98" style="background-color: #00000066">
  <path d="M 65,1 L 65,53 L 38,53 L 38,79 L 11,79 L 11,27 L 38,27 L 38,1" style="fill:#ffffff; fill-rule:evenodd; stroke:none" />
  <g style="fill:none;stroke:#ff0000;stroke-linecap:round"><path d="M 31,20 L 25,24" /><path d="M 25,24 L 19,20" /><path d="M 19,20 L 19,13" /><path d="M 19,13 L 25,10" /><path d="M 25,10 L 31,13" /><path d="M 31,13 L 31,20" /><path d="M 44,20 L 38,24" /><path d="M 38,24 L 31,20" /><path d="M 31,20 L 31,13" /><path d="M 31,13 L 38,10" /><path d="M 38,10 L 44,13" /><path d="M 44,13 L 44,20" /><path d="M 56,20 L 50,24" /><path d="M 50,24 L 44,20" /><path d="M 44,20 L 44,13" /><path d="M 44,13 L 50,10" /><path d="M 50,10 L 56,13" /><path d="M 56,13 L 56,20" /><path d="M 50,31 L 44,34" /><path d="M 44,34 L 38,31" /><path d="M 38,31 L 38,24" /><path d="M 38,24 L 44,20" /><path d="M 44,20 L 50,24" /><path d="M 50,24 L 50,31" /><path d="M 38,31 L 31,34" /><path d="M 31,34 L 25,31" /><path d="M 25,31 L 25,24" /><path d="M 25,24 L 31,20" /><path d="M 31,20 L 38,24" /><path d="M 38,24 L 38,31" /><path d="M 25,31 L 19,34" /><path d="M 19,34 L 13,31" /><path d="M 13,31 L 13,24" /><path d="M 13,24 L 19,20" /><path d="M 19,20 L 25,24" /><path d="M 25,24 L 25,31" /><path d="M 62,31 L 56,34" /><path d="M 56,34 L 50,31" /><path d="M 50,31 L 50,24" /><path d="M 50,24 L 56,20" /><path d="M 56,20 L 62,24" /><path d="M 62,24 L 62,31" /><path d="M 56,41 L 50,45" /><path d="M 50,45 L 44,41" /><path d="M 44,41 L 44,34" /><path d="M 44,34 L 50,31" /><path d="M 50,31 L 56,34" /><path d="M 56,34 L 56,41" /><path d="M 44,41 L 38,45" /><path d="M 38,45 L 31,41" /><path d="M 31,41 L 31,34" /><path d="M 31,34 L 38,31" /><path d="M 38,31 L 44,34" /><path d="M 44,34 L 44,41" /><path d="M 31,41 L 25,45" /><path d="M 25,45 L 19,41" /><path d="M 19,41 L 19,34" /><path d="M 19,34 L 25,31" /><path d="M 25,31 L 31,34" /><path d="M 31,34 L 31,41" /><path d="M 19,41 L 13,45" /><path d="M 13,45 L 7,41" /><path d="M 7,41 L 7,34" /><path d="M 7,34 L 13,31" /><path d="M 13,31 L 19,34" /><path d="M 19,34 L 19,41" /><path d="M 68,41 L 62,45" /><path d="M 62,45 L 56,41" /><path d="M 56,41 L 56,34" /><path d="M 56,34 L 62,31" /><path d="M 62,31 L 68,34" /><path d="M 68,34 L 68,41" /><path d="M 62,52 L 56,55" /><path d="M 56,55 L 50,52" /><path d="M 50,52 L 50,45" /><path d="M 50,45 L 56,41" /><path d="M 56,41 L 62,45" /><path d="M 62,45 L 62,52" /><path d="M 50,52 L 44,55" /><path d="M 44,55 L 38,52" /><path d="M 38,52 L 38,45" /><path d="M 38,45 L 44,41" /><path d="M 44,41 L 50,45" /><path d="M 50,45 L 50,52" /><path d="M 38,52 L 31,55" /><path d="M 31,55 L 25,52" /><path d="M 25,52 L 25,45" /><path d="M 25,45 L 31,41" /><path d="M 31,41 L 38,45" /><path d="M 38,45 L 38,52" /><path d="M 25,52 L 19,55" /><path d="M 19,55 L 13,52" /><path d="M 13,52 L 13,45" /><path d="M 13,45 L 19,41" /><path d="M 19,41 L 25,45" /><path d="M 25,45 L 25,52" /><path d="M 19,62 L 13,66" /><path d="M 13,66 L 7,62" /><path d="M 7,62 L 7,55" /><path d="M 7,55 L 13,52" /><path d="M 13,52 L 19,55" /><path d="M 19,55 L 19,62" /><path d="M 44,62 L 38,66" /><path d="M 38,66 L 31,62" /><path d="M 31,62 L 31,55" /><path d="M 31,55 L 38,52" /><path d="M 38,52 L 44,55" /><path d="M 44,55 L 44,62" /><path d="M 68,62 L 62,66" /><path d="M 62,66 L 56,62" /><path d="M 56,62 L 56,55" /><path d="M 56,55 L 62,52" /><path d="M 62,52 L 68,55" /><path d="M 68,55 L 68,62" /></g>
  <circle cx="65" cy="1" r="5px" style="fill:#d0d00080" /><circle cx="26" cy="73" r="5px" style="fill:#0000ff80" /><circle cx="53" cy="4" r="5px" style="fill:#ffa50080" />
</svg>
