<?xml version="1.0" encoding="UTF-8" standalone="no"?>
<!DOCTYPE svg PUBLIC "-//W3C//DTD SVG 1.1//EN" "http://www.w3.org/Graphics/SVG/1.1/DTD/svg11.dtd">
<svg xmlns="http://www.w3.org/2000/svg" xmlns:xlink="http://www.w3.org/1999/xlink" viewBox="-9 -5 178 170" style="background-color: #00000066">
  <path d="M 80,125 L 70,155 L 5,155 L 5,80 L 45,70 L 5,60 L 5,5 L 75,5 L 85,35 L 95,5 L 155,5 L 155,60 L 120,75 L 155,80 L 155,155 L 90,155" style="fill:#ffffff; fill-rule:evenodd; stroke:none" />
  <g style="fill:none;stroke:#ff0000;stroke-linecap:round"><path d="M 54,143 L 67,143" /><path d="M 67,143 L 64,152" /><path d="M 64,152 L 48,152" /><path d="M 48,152 L 46,145" /><path d="M 46,145 L 54,143" /><path d="M 54,143 L 58,109" /><path d="M 102,108 L 95,146" /><path d="M 95,146 L 89,147" /><path d="M 89,147 L 91,152" /><path d="M 91,152 L 104,152" /><path d="M 104,152 L 105,144" /><path d="M 105,144 L 95,146" /><path d="M 58,109 L 102,108" /><path d="M 102,108 L 125,85" /><path d="M 125,85 L 125,70" /><path d="M 125,70 L 101,41" /><path d="M 101,41 L 82,34" /><path d="M 82,34 L 78,33" /><path d="M 78,33 L 61,32" /><path d="M 61,32 L 33,69" /><path d="M 33,69 L 37,98" /><path d="M 37,98 L 42,102" /><path d="M 42,102 L 58,109" /><path d="M 42,102 L 25,118" /><path d="M 25,118 L 22,115" /><path d="M 22,115 L 37,98" /><path d="M 25,118 L 13,131" /><path d="M 13,131 L 9,128" /><path d="M 9,128 L 20,121" /><path d="M 20,121 L 17,119" /><path d="M 17,119 L 8,123" /><path d="M 8,123 L 6,118" /><path d="M 6,118 L 22,115" /><path d="M 17,119 L 22,115" /><path d="M 20,121 L 25,118" /><path d="M 33,69 L 13,86" /><path d="M 13,86 L 19,94" /><path d="M 19,94 L 8,103" /><path d="M 8,103 L 1,93" /><path d="M 1,93 L 9,80" /><path d="M 9,80 L 13,86" /><path d="M 61,32 L 61,18" /><path d="M 61,18 L 68,13" /><path d="M 68,13 L 61,7" /><path d="M 61,7 L 54,12" /><path d="M 54,12 L 61,18" /><path d="M 78,33 L 78,24" /><path d="M 78,24 L 82,24" /><path d="M 82,24 L 82,34" /><path d="M 82,24 L 85,23" /><path d="M 85,23 L 75,21" /><path d="M 75,21 L 74,24" /><path d="M 74,24 L 78,24" /><path d="M 101,41 L 103,22" /><path d="M 103,22 L 112,20" /><path d="M 112,20 L 106,12" /><path d="M 106,12 L 98,14" /><path d="M 98,14 L 103,22" /><path d="M 125,85 L 133,91" /><path d="M 133,91 L 145,89" /><path d="M 145,89 L 148,85" /><path d="M 148,85 L 152,89" /><path d="M 152,89 L 149,92" /><path d="M 149,92 L 145,89" /><path d="M 138,98 L 138,104" /><path d="M 138,104 L 144,104" /><path d="M 144,104 L 144,98" /><path d="M 144,98 L 138,98" /><path d="M 138,98 L 133,91" /><path d="M 133,91 L 129,105" /><path d="M 129,105 L 133,105" /><path d="M 133,105 L 133,91" /><path d="M 125,70 L 138,47" /><path d="M 138,47 L 148,48" /><path d="M 148,48 L 159,36" /><path d="M 159,36 L 154,33" /><path d="M 154,33 L 140,43" /><path d="M 140,43 L 133,26" /><path d="M 133,26 L 125,25" /><path d="M 125,25 L 130,43" /><path d="M 130,43 L 138,47" /><path d="M 138,47 L 140,43" /><path d="M 60,55 L 111,58" /><path d="M 111,58 L 114,87" /><path d="M 114,87 L 56,92" /><path d="M 56,92 L 60,55" /><path d="M 69,74 L 75,74" /><path d="M 75,74 L 75,82" /><path d="M 75,82 L 69,82" /><path d="M 69,82 L 69,74" /><path d="M 75,74 L 81,74" /><path d="M 81,74 L 81,82" /><path d="M 81,82 L 75,82" /><path d="M 81,74 L 87,74" /><path d="M 87,74 L 87,82" /><path d="M 87,82 L 81,82" /><path d="M 87,74 L 93,74" /><path d="M 93,74 L 93,81" /><path d="M 93,81 L 87,82" /><path d="M 93,74 L 99,74" /><path d="M 99,74 L 99,80" /><path d="M 99,80 L 93,81" /><path d="M 99,74 L 105,74" /><path d="M 105,74 L 105,79" /><path d="M 105,79 L 99,80" /><path d="M 69,82 L 56,92" /><path d="M 105,79 L 114,87" /><path d="M 77,65 L 72,57" /><path d="M 72,57 L 65,64" /><path d="M 65,64 L 71,71" /><path d="M 71,71 L 77,65" /><path d="M 77,65 L 82,66" /><path d="M 82,66 L 85,63" /><path d="M 85,63 L 88,66" /><path d="M 88,66 L 85,70" /><path d="M 85,70 L 82,66" /><path d="M 88,66 L 94,65" /><path d="M 94,65 L 99,59" /><path d="M 99,59 L 103,65" /><path d="M 103,65 L 98,70" /><path d="M 98,70 L 94,65" /><path d="M 103,65 L 111,58" /><path d="M 65,64 L 60,55" /><path d="M 85,70 L 87,74" /><path d="M 114,87 L 125,85" /><path d="M 56,92 L 37,98" /><path d="M 60,55 L 61,32" /><path d="M 111,58 L 101,41" /></g>
  <circle cx="119" cy="5" r="5px" style="fill:#0000ff80" />
</svg>
